<svg id="svg" version="1.1" viewBox="0 0 300 246.95124739955276" width="300" height="246.95124739955276" xmlns="http://www.w3.org/2000/svg"><g xmlns="http://www.w3.org/2000/svg" id="svg" fill="#000000" fill-rule="evenodd" stroke="none" stroke-width="1" stroke-linecap="butt" stroke-linejoin="miter" stroke-miterlimit="10" stroke-dasharray="" stroke-dashoffset="0" font-family="none" font-weight="none" font-size="none" text-anchor="none" style="mix-blend-mode: normal"><path d="M141.59283,0.28753c-0.56366,0.11068 -2.29306,0.44529 -3.84312,0.743c-25.53779,4.90485 -45.72698,26.97511 -49.20525,53.79035c-0.31206,2.40938 -0.49499,5.40701 -0.40532,6.66141l0.16244,2.28025l7.99523,0.14091l7.99523,0.1404l0.30386,-5.00835c0.4084,-6.72905 1.46346,-10.60137 4.71576,-17.30685c6.97398,-14.37942 19.74902,-23.46199 35.76766,-25.43069c16.48032,-2.02558 33.55915,6.01576 42.90305,20.19944c5.54127,8.41131 7.98959,17.00657 7.53303,26.44784c-0.34588,7.15538 -1.79038,11.44635 -8.03673,23.87602c-4.67785,9.30906 -4.96275,9.74256 -6.49538,9.89168c-1.31588,0.1281 -1.65203,-0.05534 -1.87698,-1.02483c-0.15116,-0.64923 -0.29003,-11.50835 -0.3095,-24.13172l-0.03484,-22.95111l-1.40402,-2.39606c-2.13268,-3.63969 -7.33882,-8.86582 -10.97134,-11.01387c-1.78679,-1.0566 -3.48494,-1.92156 -3.77292,-1.92207c-0.34537,0 -0.5242,5.19692 -0.5242,15.24437v15.24489l-11.91367,0.13733l-11.91367,0.13784l-0.11529,-12.43582c-0.06303,-6.83922 -0.0538,-13.76144 0.0205,-15.3817c0.16397,-3.56539 -0.09838,-3.63405 -4.29097,-1.1227c-3.83697,2.29819 -7.90504,6.25301 -10.50709,10.21399l-2.01687,3.06988v20.70365v20.70365l3.39014,5.94607c4.58151,8.03571 12.47938,20.99266 12.98718,21.30677c0.22649,0.13989 0.40737,-8.33188 0.40276,-18.82616l-0.00871,-19.08032h11.98285h11.98285l0.13528,16.52541l0.13528,16.52541l14.98099,-0.00564l14.98099,-0.00512l3.17903,-5.75956c5.46082,-9.89168 11.29672,-22.41512 13.42991,-28.81776c2.7732,-8.32368 3.48289,-13.95104 2.70299,-21.43129c-2.93512,-28.15828 -23.23806,-50.32283 -50.75378,-55.40805c-3.90973,-0.72251 -16.4547,-1.02893 -19.28734,-0.47091M90.86314,76.88142c2.96074,9.7523 13.37969,29.777 26.67842,51.27388c7.11182,11.49554 32.04854,49.10738 32.5584,49.10738c0.49858,0 21.65111,-31.71189 29.05245,-43.55536l5.60429,-8.96728l-9.01083,-0.1404c-4.95557,-0.07737 -9.25218,-0.04765 -9.54785,0.0661c-0.29515,0.11324 -3.9907,5.53768 -8.21198,12.05407c-4.22128,6.51588 -7.7918,11.83527 -7.93476,11.82041c-0.24647,-0.02562 -2.19929,-3.01864 -14.02175,-21.49431c-6.37189,-9.95727 -14.47985,-23.47121 -18.95632,-31.59454c-3.71194,-6.73571 -9.04363,-17.69167 -9.04363,-18.58379c0,-0.36638 -2.37915,-0.55085 -7.10977,-0.55085c-3.91025,0 -7.85687,-0.14963 -8.76949,-0.33205c-1.56697,-0.31309 -1.63922,-0.26287 -1.28719,0.89673M2.47189,194.55672c1.35995,3.8754 4.89562,13.73275 7.8579,21.90578l5.386,14.86006h6.82179h6.82179l7.79436,-21.52147c4.28738,-11.83681 7.80717,-21.70184 7.82203,-21.92269c0.01435,-0.22034 -2.54722,-0.33563 -5.69243,-0.25621l-5.71959,0.14501l-5.37627,16.03657c-2.95715,8.82022 -5.54332,15.85312 -5.74726,15.62869c-0.20394,-0.22444 -0.77119,-1.67611 -1.26054,-3.22617c-0.48987,-1.55006 -2.85313,-8.64036 -5.25226,-15.75679l-4.36168,-12.9385h-5.78313h-5.78261l2.47189,7.04572M49.61416,209.54488v22.03389h5.38037h5.38037v-9.2363v-9.2363l8.32676,0.14091l8.32676,0.14091l0.13989,9.09538l0.13989,9.09538h5.36858h5.36858v-22.03389v-22.03389h-5.38037h-5.38037v8.45486v8.45486h-8.45486h-8.45486v-8.45486v-8.45486h-5.38037h-5.38037v22.03389M142.10524,197.21052c-2.10654,0.50832 -3.83851,1.45577 -5.50847,3.01301l-1.40914,1.31435v-2.14549v-2.14549h-3.3307h-3.3307v17.16593v17.16593h3.29535h3.29586l0.16295,-11.40126c0.18242,-12.72534 0.43504,-13.74915 3.98198,-16.13957c2.27052,-1.52956 7.10362,-1.61411 9.44383,-0.165c3.38912,2.09886 3.62944,3.11088 3.81033,16.04836l0.16244,11.65746h3.25333h3.25384l0.17063,-11.40126c0.15577,-10.40051 0.26287,-11.55857 1.22314,-13.19317c3.78675,-6.44619 13.6441,-5.54229 15.58001,1.42862c0.29003,1.04533 0.52881,6.68498 0.53035,12.53318l0.00307,10.63263h3.3307h3.3307v-11.69231c0,-13.92337 -0.38892,-15.88131 -3.838,-19.33038c-5.23074,-5.23125 -14.816,-4.95557 -20.05596,0.57647l-1.60386,1.69353l-2.35045,-2.25258c-3.41576,-3.2728 -8.49432,-4.54718 -13.40121,-3.36299M200.3695,197.705c-7.22865,2.497 -11.43917,9.8348 -10.70078,18.64989c0.52984,6.32834 3.80366,11.51962 8.80843,13.96846c5.72727,2.80189 12.36255,2.07119 16.82005,-1.8529l2.3894,-2.10296v2.60564v2.60564h3.3307h3.3307v-17.16593v-17.16593h-3.3307h-3.3307v2.30587c0,1.26823 -0.14501,2.30587 -0.32231,2.30587c-0.1773,0 -1.2011,-0.79424 -2.27513,-1.76476c-3.54387,-3.20106 -9.54682,-4.17568 -14.71966,-2.38888M246.50897,197.66657c-2.68813,0.95976 -4.21052,1.97639 -5.88049,3.92664c-0.85778,1.00177 -0.88545,0.95053 -0.89673,-1.65613l-0.01127,-2.69018h-3.58691h-3.58691v24.85217v24.85217h3.58691h3.58691v-10.29187v-10.29187l2.38068,2.09578c3.86464,3.40142 9.059,4.4365 14.36353,2.86082c7.57812,-2.25053 12.32975,-10.90831 10.93188,-19.91915c-0.72968,-4.69988 -1.97741,-7.41876 -4.61738,-10.05873c-4.14288,-4.14288 -10.77355,-5.64272 -16.27023,-3.67966M281.59409,197.29404c-5.42905,1.27797 -8.56657,4.88896 -8.56657,9.85837c0,4.9648 3.03145,7.42235 12.13094,9.83429c6.50871,1.72479 7.97012,2.71427 7.75285,5.24816c-0.19626,2.28538 -2.01226,3.72475 -5.14466,4.07781c-3.17442,0.35767 -6.91505,-1.30666 -7.71801,-3.43421c-0.57596,-1.52546 -0.63847,-1.54801 -4.27919,-1.54801h-3.69503l0.41249,1.43886c1.12373,3.91742 3.04426,6.09314 6.95195,7.87532c2.0881,0.95207 3.44753,1.16472 7.42388,1.16318c4.30481,-0.00256 5.17899,-0.16449 7.55557,-1.40453c4.50362,-2.3484 6.60197,-7.02983 5.10059,-11.37871c-0.96027,-2.78191 -4.08396,-5.08265 -8.70339,-6.41084c-9.32597,-2.68096 -11.1266,-3.61202 -11.1266,-5.75392c0,-5.3819 10.48557,-6.11927 12.46452,-0.87674c0.54829,1.45321 0.69535,1.51214 3.7888,1.51214c3.10473,0 3.21848,-0.04612 3.21848,-1.30154c0,-2.084 -1.90926,-5.25175 -4.1393,-6.86689c-3.21029,-2.32586 -8.67213,-3.1529 -13.42735,-2.03275M212.91805,204.73791c3.15495,2.53646 4.51182,5.44596 4.51182,9.67493c0,4.22538 -1.35637,7.13847 -4.50209,9.66724c-3.81289,3.06476 -10.65262,2.2741 -13.68612,-1.58234c-3.70528,-4.71013 -3.4173,-13.23417 0.57083,-16.89025c2.41399,-2.21261 4.10599,-2.78344 7.72518,-2.60564c2.9218,0.14296 3.7186,0.4002 5.38037,1.73607M255.20057,204.03949c5.2374,3.17083 6.9832,10.34209 4.01222,16.48032c-1.6259,3.35837 -4.33299,5.06933 -8.40721,5.31375c-4.18234,0.25108 -7.12053,-1.25388 -9.29164,-4.75829c-1.37942,-2.22696 -1.53725,-2.91052 -1.53725,-6.65936c0,-3.74884 0.15782,-4.43342 1.53725,-6.66243c2.01072,-3.24974 4.98171,-4.87103 8.91962,-4.86744c2.06094,0.00205 3.39988,0.3259 4.76701,1.15345M94.70677,209.28867v2.81829h12.55419h12.55419v-2.81829v-2.81829h-12.55419h-12.55419v2.81829"/></g></svg>